<svg xmlns="http://www.w3.org/2000/svg" enable-background="new 0 0 32 32" viewBox="0 0 32 32"><path d="M29,27v-4v-8V7c0-1.7-1.3-3-3-3H6C4.3,4,3,5.3,3,7v8v8v4c0,0.6,0.4,1,1,1s1-0.4,1-1v-3h22v3c0,0.6,0.4,1,1,1S29,27.6,29,27z M5,16h5h12h5v1.5l-1.4,1c-0.3,0.2-0.8,0.2-1.1,0l-0.8-0.5c-1-0.7-2.3-0.7-3.3,0l-0.8,0.5c-0.3,0.2-0.8,0.2-1.1,0l-0.8-0.5c-1-0.7-2.3-0.7-3.3,0l-0.8,0.5c-0.3,0.2-0.8,0.2-1.1,0l-0.8-0.5c-1-0.7-2.3-0.7-3.3,0l-0.8,0.5c-0.3,0.2-0.8,0.2-1.1,0l-1.4-1V16z M21,14H11v-3c0-0.6,0.4-1,1-1h8c0.6,0,1,0.4,1,1V14z M6,6h20c0.6,0,1,0.4,1,1v7h-4v-3c0-1.7-1.3-3-3-3h-8c-1.7,0-3,1.3-3,3v3H5V7C5,6.4,5.4,6,6,6z M5,22v-2.1l0.3,0.2c1,0.7,2.3,0.7,3.3,0l0.8-0.5c0.3-0.2,0.8-0.2,1.1,0l0.8,0.5c1,0.7,2.3,0.7,3.3,0l0.8-0.5c0.3-0.2,0.8-0.2,1.1,0l0.8,0.5c1,0.7,2.3,0.7,3.3,0l0.8-0.5c0.3-0.2,0.8-0.2,1.1,0l0.8,0.5c0.5,0.3,1.1,0.5,1.7,0.5s1.2-0.2,1.7-0.5l0.3-0.2V22H5z"/></svg>