<svg xmlns="http://www.w3.org/2000/svg" viewBox="0 0 1024 1024"><path d="m868.68 465.5 28.38 23.9 25.77-30.6-135.64-114.22v-142.8h-92.98v64.5L512 112.85 101.17 458.8l25.77 30.6 28.38-23.9v405.64h-44.34v40h802.04v-40h-44.34V465.5zM324.19 852.58V719.27c-4.38 5.02-10.81 8.19-17.96 8.19-13.12 0-23.8-10.67-23.8-23.8v-98.54c0-29.35 23.88-53.23 53.23-53.23h80.2c28.85 0 53.23 25.33 53.23 55.31v98.55c0 13.13-10.68 23.8-23.81 23.8-7.16 0-13.59-3.18-17.95-8.2v132.71c0 4.63-1.83 8.97-5.14 12.22-3.03 2.96-6.94 4.66-11.12 4.86-.28.01-.56.02-.84.02-.11 0-.22 0-.34-.01h-68.97c-.07 0-.14 0-.21-.01-8.82-.32-16.52-8.94-16.52-18.56zm114.37-388.7c0 34.62-28.17 62.79-62.8 62.79-34.63 0-62.8-28.17-62.8-62.79 0-34.63 28.17-62.8 62.8-62.8 34.63-.01 62.8 28.16 62.8 62.8zM722.94 730.7c-6.16 1.34-12.48.19-17.79-3.22-.43-.28-.84-.56-1.24-.86l15.65 71.54c.64 2.92-.07 5.93-1.95 8.27a9.794 9.794 0 0 1-7.66 3.66H679.7v44.84c0 4.36-1.67 8.41-4.72 11.39-3 2.93-7.02 4.62-11.43 4.82-.3.01-.59.02-.89.02-.14 0-.27 0-.4-.01h-68.97c-.07 0-.14 0-.21-.01-8.98-.31-16.52-8.36-16.52-17.69v-43.36h-30.28c-2.98 0-5.77-1.33-7.65-3.66a9.8 9.8 0 0 1-1.95-8.25l15.56-71.94c-.55.44-1.13.85-1.74 1.24-3.86 2.48-8.26 3.77-12.74 3.77-1.68 0-3.37-.19-5.05-.55-12.73-2.76-20.84-15.37-18.09-28.1l23.8-109.74a52.121 52.121 0 0 1 18.16-29.45 52.168 52.168 0 0 1 32.64-11.52h77.21c11.84 0 23.43 4.09 32.64 11.52a52.19 52.19 0 0 1 18.17 29.45l23.79 109.74c2.76 12.73-5.36 25.35-18.09 28.1zM565.33 463.88c0-34.63 28.17-62.8 62.8-62.8s62.8 28.17 62.8 62.8c0 34.62-28.17 62.79-62.8 62.79s-62.8-28.18-62.8-62.79z"/></svg>