<svg xmlns="http://www.w3.org/2000/svg" xmlns:xlink="http://www.w3.org/1999/xlink" width="64" height="64"><defs><linearGradient id="a"><stop offset="0" stop-color="#000092"/><stop offset="1" stop-color="#ff00f3"/></linearGradient><linearGradient id="b" x1=".993" x2="29" y1="15.993" y2="15.993" gradientUnits="userSpaceOnUse" xlink:href="#a"/></defs><path style="text-indent:0;text-align:start;line-height:normal;text-transform:none;block-progression:tb;marker:none;-inkscape-font-specification:Sans" fill="url(#b)" d="M16.094 1a14.92 14.92 0 0 0-5.844 1.125.51.51 0 1 0 .406.938c5.45-2.257 11.498-.815 15.375 3.156L17.75 14.5H5v5h7.75l-6.531 6.531a14.02 14.02 0 0 1-3.157-4.687 13.987 13.987 0 0 1 .063-10.875.5.5 0 1 0-.906-.406 15 15 0 0 0-.094 11.656c3.167 7.648 11.977 11.292 19.625 8.125 7.648-3.168 11.261-11.945 8.094-19.594-2.376-5.736-7.905-9.204-13.75-9.25zM8.937 4a.5.5 0 0 0-.343.5C8.594 5.32 7.886 6 7 6H4.437a.5.5 0 0 0-.156 0 .506.506 0 0 0-.062.031c-.01.002-.022-.002-.032 0a.506.506 0 0 0-.062.032A1.485 1.485 0 0 0 3 7.5C3 8.322 3.678 9 4.5 9a.504.504 0 0 0 .031 0 .5.5 0 0 0 .094 0h2.25a.504.504 0 0 0 .094 0H10.313a.506.506 0 0 0 .156 0h.062a.493.493 0 0 1 .469.5c0 .282-.218.5-.5.5a.5.5 0 0 0-.031 0H7.53a.5.5 0 0 0-.156 0 .506.506 0 0 0-.094.031C6.011 10.17 5 11.184 5 12.47a.5.5 0 0 0 .5.531.5.5 0 0 0 .5-.531c0-.759.586-1.382 1.375-1.469a.506.506 0 0 0 .094.031A2.37 2.37 0 0 0 7 12.47a.5.5 0 0 0 .5.531.5.5 0 0 0 .5-.531C8 11.649 8.676 11 9.563 11h.906a.5.5 0 0 0 .031 0c.04 0 .085.003.125 0a.5.5 0 0 0 .094-.031A1.488 1.488 0 0 0 12 9.5c0-.812-.66-1.484-1.469-1.5H6.5a.493.493 0 0 1-.5-.5c0-.282.218-.5.5-.5h.031a.506.506 0 0 0 .157 0H7c1.405 0 2.594-1.118 2.594-2.5a.5.5 0 0 0-.656-.5zm17.75 2.969a13.944 13.944 0 0 1 2.25 3.656c2.961 7.15-.444 15.352-7.593 18.313-5.01 2.074-10.506 1.023-14.375-2.25l7.187-7.188H28v-5h-8.844l7.532-7.531zM4.438 7h.094a.506.506 0 0 0 .157 0h.406c-.06.162-.094.318-.094.5 0 .171.04.346.094.5h-.5a.5.5 0 0 0-.032 0A.5.5 0 0 0 4.5 8a.493.493 0 0 1-.5-.5c0-.26.186-.47.438-.5zM6 15.5h.844v3H6v-3zm1.844 0h8.906l-3 3H7.844v-3zm10.312 0H27v3H15.156l3-3z" color="#000" font-family="Sans" font-weight="400" overflow="visible"/></svg>