<svg xmlns="http://www.w3.org/2000/svg" viewBox="0 0 16 16"><g fill="#231f20" data-name="Layer 2"><path d="M8 2a6 6 0 1 0 6 6 6 6 0 0 0-6-6Zm0 11a5 5 0 1 1 5-5 5 5 0 0 1-5 5Z"/><path d="M8.43 4.55a2 2 0 0 0-2.32 1.31.49.49 0 0 0 .32.63.5.5 0 0 0 .63-.33 1 1 0 0 1 1.14-.64 1 1 0 0 1 .7 1.1 1 1 0 0 1-1 .77.5.5 0 0 0-.56.5v1.56a.5.5 0 0 0 .5.5.49.49 0 0 0 .5-.49v-1.1a2 2 0 0 0 1.55-1.57 2 2 0 0 0-1.46-2.24zm-.62 5.84a.53.53 0 0 0-.5.5V11a.47.47 0 0 0 .49.46.53.53 0 0 0 .5-.52v-.08a.47.47 0 0 0-.49-.47z"/></g></svg>