<svg xmlns="http://www.w3.org/2000/svg" data-name="Layer 8" viewBox="0 0 32 32"><defs><linearGradient id="a" x1="5.394" x2="26.606" y1="5.394" y2="26.606" gradientUnits="userSpaceOnUse"><stop offset="0" stop-color="#8e2de2"/><stop offset="1" stop-color="#4a00e0"/></linearGradient></defs><path fill="url(#a)" d="M4.131 21.312a1 1 0 1 1-1.826.816A15.087 15.087 0 0 1 5.394 5.394a14.989 14.989 0 0 1 20.213-.907v-.508a1 1 0 1 1 2 0v2.829a1 1 0 0 1-1 1h-2.829a1 1 0 0 1 0-2h.28a12.985 12.985 0 0 0-17.25 1 13.075 13.075 0 0 0-2.677 14.504Zm25.66-11.219a1 1 0 1 0-1.838.787A13 13 0 0 1 7.942 26.192h.28a1 1 0 0 0 0-2H5.394a1 1 0 0 0-1 1v2.829a1 1 0 0 0 2 0v-.507a15 15 0 0 0 23.397-17.422ZM9.7 18.634c3.468-.967 5.3-2.57 5.3-4.634a3.957 3.957 0 0 0-4-4 4 4 0 0 0-4 4 1 1 0 0 0 2 0 2 2 0 0 1 2-2 1.956 1.956 0 0 1 2 2c0 1.025-1.434 2.038-3.835 2.708A2.989 2.989 0 0 0 7 19.588V21a1 1 0 0 0 1 1h6a1 1 0 0 0 0-2H9v-.412a.984.984 0 0 1 .7-.954ZM24 22a1 1 0 0 0 1-1V11a1 1 0 0 0-2 0v4h-3a1 1 0 0 1-1-1v-3a1 1 0 0 0-2 0v3a3 3 0 0 0 3 3h3v4a1 1 0 0 0 1 1Z"/></svg>