<svg xmlns="http://www.w3.org/2000/svg" width="34.763" height="21.977"><path fill-rule="evenodd" d="M.103 21.971c.2.131 2.232-1.838 2.429-2.3h.131a1.22 1.22 0 0 0 .788-.459 6.763 6.763 0 0 1 3.284-2.359 7.428 7.428 0 0 1 2.364-.394c2.889 0 5.383 1.772 8.009 2.757a12.238 12.238 0 0 0 4.4.919 8 8 0 0 0 2.1-.262 7.833 7.833 0 0 0 4.135-2.3c.263-.262 1.839-2.035 2.035-2.3a1.245 1.245 0 0 0-.327-1.642 1.275 1.275 0 0 0-.658-.2 1.243 1.243 0 0 0-.983.526c-.067.131-.2.262-.264.394-.721.853-3.15 3.02-4.463 3.282a7.76 7.76 0 0 1-3.676-.131 22.059 22.059 0 0 1-3.741-1.445 30.4 30.4 0 0 0-4.268-1.641 9.138 9.138 0 0 0-2.3-.262 9.846 9.846 0 0 0-3.085.524 7.617 7.617 0 0 0-2.429 1.182 9.309 9.309 0 0 0-1.97 1.97l-.131.131c-.262.525-1.9 3.676-1.378 4Zm26.519-17a4.071 4.071 0 0 1 8.141 0 4.071 4.071 0 0 1-8.141 0Zm-15.36-.459 7.68-1.575.131.459.4 4.267c-.131 0-8.8 2.43-10.635 2.888a13.973 13.973 0 0 0 3.808 1.444c5.12 1.379 8.861.592 12.144.788L21.235 1.03h-.066V.966a1.294 1.294 0 0 0-1.575-.92l-8.859 1.773a1.342 1.342 0 0 0-1.116 1.575A1.441 1.441 0 0 0 11.26 4.51Z" data-name="boy swimming"/></svg>